<?xml version="1.0" encoding="UTF-8"?>
<svg version="1.1" viewBox="0 0 2048 919" width="517" height="232" xmlns="http://www.w3.org/2000/svg">
<path transform="translate(189,666)" d="m0 0h1674l16 2 16 5 12 6 11 8 14 14 9 15 6 16 2 10v27l-4 17-8 17-7 9-11 12-13 9-15 7-16 4-19 1h-1669l-17-2-19-7-10-6-11-9-7-7-9-13-6-12-5-17-1-7v-16l3-17 6-16 8-13 11-13 10-8 14-8 14-5 10-2z" fill="#FEFEFD"/>
<path transform="translate(1784,118)" d="m0 0h42l22 3 15 4 17 7 15 9 13 12 9 10 9 15 6 14 5 16 3 14 2 19v40l-3 19-4 15-7 15-8 12-8 8-13 9-14 6-10 3-1 2 16 4 12 5 11 7 10 9 9 12 7 14 6 17 3 14 1 11v44l-2 16-5 23-6 16-8 15-8 11-7 8-11 9-13 8-15 7-21 6-19 3-13 1h-36l-26-3-19-5-15-6-12-7-13-10-9-9-10-14-8-16-5-13-4-15-3-17-2-28v-26l3-2h103l1 1 1 34 2 14 5 14 8 9 8 4 9 2 13-1 10-3 7-5 6-9 3-8 2-10 1-13v-29l-3-16-6-12-8-6-13-4-8-1-55-1-1-1v-94l4-1 53-1 14-3 10-6 6-9 3-7 1-6v-47l-3-13-5-10-8-7-9-3h-20l-10 4-6 5-6 12-3 14-1 36-2 3h-96l-1-1v-29l2-23 5-26 6-18 8-17 10-14 15-15 13-8 14-7 21-6z" fill="#FEFEFD"/>
<path transform="translate(1497,128)" d="m0 0h83l1 1 1 389 11 1h49l1 1 1 12v86l-1 2h-228l-2-2v-98l9-1h51l1-11v-210l1-63-23 7-33 9h-5l-1-5v-98l8-3 59-14z" fill="#FEFEFD"/>
<path transform="translate(1200,431)" d="m0 0h21l17 3 16 6 10 6 13 10 8 8 7 10 8 16 4 13 2 9 1 14-2 17-5 18-9 17-9 11-5 5-9 8-14 8-12 5-15 4h-30l-19-5-16-8-11-8-7-6-9-11-8-13-7-19-2-9v-29l5-19 8-16 9-13 11-11 15-10 13-6 9-3z" fill="#FEFEFD"/>
<path transform="translate(422,167)" d="m0 0h34l4 5 15 28 18 34 15 28 12 23 2 1v-117l1-1 20-1h25l3 1 1 4v191l-1 7-4 1h-48l-5-3-17-32-36-68-8-14-2-1v116l-4 2h-40l-5-2-1-53 1-148z" fill="#FEFEFD"/>
<path transform="translate(1e3 167)" d="m0 0h25l5 2 1 122 2 14 5 10 7 6 11 4h8l8-2 8-4 6-8 4-11 1-11v-117l1-3 2-1 18-1h26l3 1v137l-3 15-5 13-4 8-8 10-7 7-11 7-12 5-10 3-7 1h-27l-14-3-11-4-13-8-9-8-7-10-7-14-5-21-1-12v-125l1-1z" fill="#FEFEFD"/>
<path transform="translate(783,165)" d="m0 0h22l15 3 15 5 15 8 10 8 6 5 1 7-7 7-7 8-12 12-1 2-6-1-10-7-13-5-9-2h-15l-12 3-12 6-10 9-7 11-4 11-2 12 1 13 4 13 6 11 5 5 9 8 11 5 14 3h9l14-3 16-8 7-5 4 1 11 11 7 8 9 10v5l-11 10-14 9-11 5-16 5-7 1h-27l-15-3-15-5-15-8-16-13-10-11-10-16-6-15-4-17-1-9v-17l4-20 5-13 7-14 10-13 11-11 13-9 16-8 16-5z" fill="#FEFEFD"/>
<path transform="translate(123,167)" d="m0 0h29l3 5 10 31 14 45 10 33 5 16 1 8 2-1 11-33 20-65 12-37 1-1 7-1h40l4 2-5 17-22 64-20 59-15 43-6 17-3 2h-47l-4-2-7-19-12-36-19-55-18-53-10-29-1-9z" fill="#FEFEFD"/>
<path transform="translate(342,433)" d="m0 0h45l4 8 25 74 15 43 13 38 5 16-1 4h-44l-4-8-5-16-63-1-2 9-5 15-1 1h-45v-6l5-14 21-62 10-28 7-21 14-41 4-10z" fill="#FEFEFD"/>
<path transform="translate(1232,165)" d="m0 0h20l18 4 16 8 6 4 10 9 4 4-2 5-9 12h-2l-2 4-9 11-6-1-10-7-8-4-6-2h-15l-6 3h-2l-2 5-1 2v7l4 7 11 6 33 15 14 8 10 9 5 6 6 12 2 7 1 8v13l-4 16-5 10-7 9-10 8-16 7-11 3-10 1h-17l-16-3-15-6-11-7-10-9-5-5-2-3v-5l11-12 9-11 4-4 5 1 14 11 14 6 7 1h10l8-3 4-2 4-6v-8l-4-6-7-5-33-15-16-9-10-8-7-8-6-13-3-12v-17l3-13 7-13 9-10 10-7 12-5z" fill="#FEFEFD"/>
<path transform="translate(189,431)" d="m0 0h22l16 3 12 5 13 7 10 9 4 4-1 5-9 9-7 8-8 8-4-1-14-8-13-4h-17l-12 3-10 6-7 6-8 13-3 10-1 7v8l3 14 6 12 9 10 16 8 15 2 15-2 17-8 5-4 4 1 13 13 7 8 4 4v5l-8 8-14 9-16 7-12 3h-30l-16-4-12-5-14-8-13-12-7-8-7-11-5-11-4-13-2-10v-22l4-19 6-15 8-12 11-13 14-11 16-8 12-4z" fill="#FEFEFD"/>
<path transform="translate(772,433)" d="m0 0h80l3 2v31l-2 7-56 1v30h49l5 1 1 2v33l-2 4-53 1v31h35l22 1v39h-101l-2-3v-177l1-2z" fill="#FEFEFD"/>
<path transform="translate(514,431)" d="m0 0h21l14 3 16 8 8 6 8 7 1 5-11 13-10 13-6-1v-2l-5-2-10-6-8-2h-12l-6 3-3 4-1 7 2 5 7 6 23 10 16 8 11 7 9 9 7 12 3 16v9l-3 14-6 12-9 10-9 6-11 5-13 3h-25l-15-4-9-4-12-7-10-9-4-6 1-5 11-12 7-8 4-4 4 2 15 11 11 4h16l8-4 4-5v-7l-3-6-10-6-26-12-13-7-9-7-8-9-6-13-2-11v-11l3-14 5-10 8-10 10-7 12-5z" fill="#FEFEFD"/>
<path transform="translate(939,683)" d="m0 0h29l4 8 16 41 18 46 2 5 2-2 11-28 11-27 14-36 3-6 2-1h28l1 1v133l-7 2h-14l-7-2-1-75-8 20-14 37-7 16-4 4h-11l-9-1-4-5-8-20-20-52v21l-1 55-1 1h-26l-1-2v-131z" fill="#FE2027"/>
<path transform="translate(604,433)" d="m0 0h115l4 1 1 2v22l-1 14-11 1h-26l-1 142-1 1h-42l-2-5v-138h-35l-2-1-1-3v-35z" fill="#FEFEFD"/>
<path transform="translate(890,433)" d="m0 0h37l3 1 1 13v129l54 1v38l-1 1h-97l-2-5v-150l1-27z" fill="#FEFEFD"/>
<path transform="translate(1016,433)" d="m0 0h37l2 1 1 3v139l54 1 1 35-1 4h-98l-2-7v-97l1-78z" fill="#FEFEFD"/>
<path transform="translate(617,167)" d="m0 0h39l2 2v196l-1 5-4 1h-40l-4-1-1-3v-197l1-2z" fill="#FEFEFD"/>
<path transform="translate(325,167)" d="m0 0h37l2 1 1 3v193l-2 6-3 1h-40l-4-1-1-2v-199l1-1z" fill="#FEFEFD"/>
<path transform="translate(912,167)" d="m0 0h31l3 1 1 3v194l-1 5-3 1h-41l-4-1-1-2v-199l1-1z" fill="#FEFEFD"/>
<path transform="translate(1204,475)" d="m0 0h16l13 4 10 6 7 7 7 12 4 14v14l-3 12-4 8-6 8-9 8-13 6-5 1h-18l-13-4-10-7-7-7-6-10-3-9-1-6v-13l4-16 7-11 8-8 14-7z" fill="#FE2027"/>
<path transform="translate(1843,722)" d="m0 0h20l10 3 11 6 9 9 8 16 2 9v14l-3 11-7 12-7 8-10 6-11 4-5 1h-15l-15-5-12-9-8-10-5-12-1-5v-19l4-12 6-9 5-6 10-7 10-4z" fill="#FE2027"/>
<path transform="translate(821,722)" d="m0 0h20l13 4 10 6 8 9 7 14 2 8v18l-3 10-7 12-8 8-16 8-8 2h-15l-10-3-10-5-10-9-6-8-4-9-2-10v-11l2-10 4-10 7-9 8-7 9-5z" fill="#FE2027"/>
<path transform="translate(477,682)" d="m0 0h17l16 4 13 7 9 7 2 2-1 4-2 3h-2l-2 4-8 9-4-1-10-6-7-3-5-1h-15l-12 4-9 7-6 8-4 10-1 6v12l4 13 6 10 10 7 11 4h17l10-3 13-8 7 6 8 8 2 3-1 4-10 8-14 7-13 4h-20l-15-4-14-7-11-9-9-11-7-14-3-12-1-7v-11l2-13 5-13 8-12 9-10 16-10 15-5z" fill="#FE2027"/>
<path transform="translate(1698,681)" d="m0 0h26l1 4v33l-1 17 11-9 8-4 12-1 10 2 10 6 6 7 5 12 1 4v65l-1 1h-25l-2-3-1-58-3-4v-2l-5-2-3-1h-9l-6 3-4 5-2 4-1 10-1 47-1 1h-24l-1-1z" fill="#FE2027"/>
<path transform="translate(580,722)" d="m0 0h20l11 3 11 7 8 10 5 12 1 5v14l-3 6-3 2-19 1h-41l4 8 6 5 9 3h12l12-3 5-2 4 1 7 10-1 5-9 6-12 5-5 1h-16l-9-2-11-5-8-6-7-7-6-12-3-14 1-16 5-14 7-9 8-7 10-5z" fill="#FE2027"/>
<path transform="translate(1505,683)" d="m0 0h72l1 1v24l-1 1-44 1v25l1 1 42 1v23l-2 2-41 1-1 54-1 1h-25l-2-2v-132z" fill="#FE2027"/>
<path transform="translate(1105,724)" d="m0 0h25l1 1v51l2 10 4 6 4 2h14l5-2 2-4 2-3 1-5 1-55 1-1h25l1 1v87l-2 7h-14l-8-1-3-9-5 2-9 7-9 4h-9l-9-3-6-4-8-7-5-10-2-9v-64z" fill="#FE2027"/>
<path transform="translate(1262,721)" d="m0 0h14l10 4 6 4v2l3 1 6 10 3 10v65l-1 1h-25l-1-1-1-45-1-14-3-5-1-3-6-2h-10l-7 4-4 6-1 3-2 57h-25l-1-1v-92l1-1h24l1 10 4-1 9-8z" fill="#FE2027"/>
<path transform="translate(1373,724)" d="m0 0h73l1 2v17l-4 8-12 13-9 11-16 17-2 3 42 1 1 2v19l-1 1h-73l-2-3v-18l5-7 5-5 13-14 7-8 9-10 5-7h-41l-2-2v-15z" fill="#FE2027"/>
<path transform="translate(735,721)" d="m0 0 12 2 12 6 5 4 3 4-2 5-9 10-5-2-9-5-9-1-4 1-1 7 5 5 22 9 9 7 5 8 2 6v9l-4 9-7 8-13 7-14 2-11-2-16-8-5-4-3-5 1-4 6-8 2-3h5l11 7 6 2h7l6-3v-6l-4-4-21-9-8-6-6-8-2-6v-10l4-10 8-8 8-4z" fill="#FE2027"/>
<path transform="translate(1649,681)" d="m0 0h26l1 1v64l-1 72h-25l-2-1v-125z" fill="#FE2027"/>
<path transform="translate(653,681)" d="m0 0h27l1 5v38l-1 93-1 1h-25l-1-1z" fill="#FE2027"/>
<path transform="translate(113,47)" d="m0 0h18l15 2 8 6 5 7 2 7v9l-3 10-6 8-10 4-6 1h-15v29h-15l-1-2v-80z" fill="#FEFEFD"/>
<path transform="translate(488,71)" d="m0 0h9l10 3 8 7 6 10 1 4v13l-4 9-6 8-5 4-13 3-11-1-10-5-7-8-4-10v-14l4-9 7-8 10-5z" fill="#FEFEFD"/>
<path transform="translate(632,69)" d="m0 0 4 1 8 21 1 4 27 2 1 1v5l-11 9-9 7 3 10 4 14-1 4-7-1-16-11-4-1-10 7-8 6h-6l-1-1 1-9 5-17-2-4-11-7-8-8 1-3 2-1 24-1 2-1 7-19 2-5h2z" fill="#FEFEFD"/>
<path transform="translate(1599,724)" d="m0 0h27l1 1-1 92-1 1h-25l-1-1z" fill="#FE2027"/>
<path transform="translate(1326,724)" d="m0 0h27v93l-1 1h-25l-1-1z" fill="#FE2027"/>
<path transform="translate(240,71)" d="m0 0h10l9 3 7 6 6 12v12l-1 2-3 1h-38l4 7 6 4 4 1h7l10-3 4 1 2 3-1 5-6 5-8 2h-12l-9-3-9-7-6-12-1-4v-9l3-11 5-7 7-5z" fill="#FEFEFD"/>
<path transform="translate(348,71)" d="m0 0h9l10 4 7 6 5 10 1 11-2 4-2 1h-38l2 5 5 5 6 2 13-1 4-2 4 1 2 2v6l-5 4-5 2-6 1h-10l-9-3-8-6-4-5-4-9v-15l3-9 7-8 8-4z" fill="#FEFEFD"/>
<path transform="translate(827,747)" d="m0 0h9l9 3 7 8 3 8v9l-3 10-4 5-6 4-12 2-9-2-8-7-4-8-1-10 2-8 5-8 8-5z" fill="#FEFEFD"/>
<path transform="translate(1849,747)" d="m0 0h9l8 3 5 4 5 9v15l-4 9-8 7-9 2-10-1-8-5-5-7-2-7v-9l3-9 7-8z" fill="#FEFEFD"/>
<path transform="translate(301,44)" d="m0 0h13l3 2v12h-12v14h11l1 1v10l-2 2-10-1-1 46h-15l-1-2v-43l-7-1-1-1v-10l2-1h6v-15l4-8 6-4z" fill="#FEFEFD"/>
<path transform="translate(428,57)" d="m0 0h15v15h9l2 2v9l-3 2h-7l-1 32 10 2 1 1v8l-1 2-4 1-13-1-6-5-2-4-1-8v-28l-8-1-1-1v-10l2-1h7v-13z" fill="#FEFEFD"/>
<path transform="translate(200,71)" d="m0 0 7 1 1 3v10l-4 1-9 2-4 3-1 5-1 34h-15l-1-2v-55l1-1h9l6 2v3l5-2 3-3z" fill="#FEFEFD"/>
<path transform="translate(363,493)" d="m0 0h2l8 24 9 30v4h-36l-1-4 9-27 8-26z" fill="#FE2027"/>
<path transform="translate(329,727)" d="m0 0h28l1 5-1 1h-30v23l29 1 1 2-2 3h-28l1 22 29 1 2 1-2 4-5 1h-27l-3-2-1-17v-37l1-7z" fill="#FE2027"/>
<path transform="translate(403,72)" d="m0 0 4 1v57h-14l-1-1v-56z" fill="#FEFEFD"/>
<path transform="translate(287,727)" d="m0 0h15l6 3 4 5 1 4v10l-5 1-1-11-2-5-13-1-10 2-1 4v41l4 4h18l4-4 1-12 3-1 2 2v12l-3 5-3 3-7 2h-14l-8-4-3-5-1-4v-39l4-8 5-3z" fill="#FE2027"/>
<path transform="translate(486,86)" d="m0 0h12l7 6 2 4v11l-4 6-5 4-8 1-8-3-4-5-1-2v-11l3-6z" fill="#FE2027"/>
<path transform="translate(1608,678)" d="m0 0h9l6 3 5 9v7l-6 8-6 3h-7l-7-4-4-6-1-8 4-7 5-4z" fill="#FE2027"/>
<path transform="translate(1336,678)" d="m0 0h8l6 4 5 8v7l-7 8-4 3h-9l-6-4-4-6-1-7 3-7 6-5z" fill="#FE2027"/>
<path transform="translate(203,727)" d="m0 0 4 2 4 11 11 36 1 4 2 1 3-11 11-35 3-7 4-1-1 8-14 45-4 10h-6l-4-10-13-42-2-10z" fill="#FE2027"/>
<path transform="translate(589,744)" d="m0 0 10 1 6 4 5 6 1 7h-41l-1-4 4-6 6-5z" fill="#FEFEFD"/>
<path transform="translate(121,62)" d="m0 0h17l3 1 4 7v9l-3 5-5 2-11 1-5-2z" fill="#FE2027"/>
<path transform="translate(251,728)" d="m0 0h16l-2 4-3 1v26l1 25 3 3v4l-15-1 1-4 4-1v-51l-5-3z" fill="#FE2027"/>
<path transform="translate(349,84)" d="m0 0h7l7 4 3 5-1 3h-27v-4l4-5z" fill="#FE2027"/>
<path transform="translate(241,84)" d="m0 0h7l7 4 3 4v4h-27l-1-3 6-7z" fill="#FE2027"/>
<path transform="translate(399,44)" d="m0 0 6 1 3 7v5l-4 3-6 1-5-2-2-3v-6l4-5z" fill="#FEFEFD"/>
<path transform="translate(368,770)" d="m0 0 3 1v7l-3 1-3-3 1-5z" fill="#FE2027"/>
<path transform="translate(366,744)" d="m0 0h5l1 5-1 2-5-1-1-5z" fill="#FE2027"/>
</svg>
